<svg width="1065" height="947" version="1.1" viewBox="0 0 1065 947" xml:space="preserve" xmlns="http://www.w3.org/2000/svg">
  
  
  
  <g transform="matrix(1.33 0 0 -1.33 0 947)">
    <path d="m572 253c-56.2 18.4-89.1 40.2-105 73.3 16.3 18.3 25.6 36.9 25.6 36.9s12.7 30.3 16.4 58.5c0.027 0 16.6 21.9 17 35.1 0.384 13.2 1.73 44.1-5.19 44.1-3.46 0-4.76-0.977-5.19-1.96 0 0.018-1e-3 0.039-1e-3 0.057 5.2 8.36 12 32.6 5 49.9-6.3 15.5-11.8 24.6-15.6 29.8l12.6 0.203s-6.54 4.23-18.8 21.9c-12.3 17.7-30.4 34.1-58.5 39.9-13.2 2.71-28.7 0.959-37.5-0.472-8.78 1.43-24.3 3.18-37.5 0.472-28.1-5.77-46.2-22.2-58.5-39.9-12.3-17.7-18.8-21.9-18.8-21.9l12.6-0.203c-3.78-5.2-9.25-14.3-15.6-29.8-7.04-17.3-0.203-41.5 5-49.9 0-0.018-1e-3 -0.039-1e-3 -0.057-0.432 0.978-1.73 1.96-5.19 1.96-6.92 0-5.58-31-5.19-44.1 0.384-13.2 17-35.1 17-35.1 3.7-28.2 16.3-58.5 16.3-58.5s7.86-15.5 21.7-32.3c-15.1-35.7-48.4-58.6-107-77.9-86.3-28.3-84.2-77.3-84.2-132v-54.2h513v54.2c0 54.2 2.03 103-84.2 132" fill="#bdbcbc"/>
  </g>
</svg>
